<?xml version="1.0" standalone="no"?>
<!DOCTYPE svg PUBLIC "-//W3C//DTD SVG 20010904//EN"
 "http://www.w3.org/TR/2001/REC-SVG-20010904/DTD/svg10.dtd">
<svg version="1.0" xmlns="http://www.w3.org/2000/svg"
 width="78.000000pt" height="35.000000pt" viewBox="0 0 1900.000000 860.000000"
 preserveAspectRatio="xMidYMid meet">
    <g transform="translate(0.000000,860.000000) scale(0.100000,-0.100000)"
    fill="#000000" stroke="none">
    <path class="logo-wagashi" d="M5400 4755 l0 -435 -90 0 -90 0 0 -230 0 -230 84 0 83 0 -4 -27 c-15
    -95 -37 -197 -55 -253 -23 -72 -82 -195 -105 -222 -17 -19 -15 -20 232 -302
    l60 -68 33 38 c48 55 104 139 139 209 68 133 131 354 153 529 l12 96 309 0
    309 0 0 -420 0 -420 235 0 235 0 0 420 0 420 70 0 70 0 0 230 0 230 -70 0 -70
    0 -2 433 -3 432 -767 3 -768 2 0 -435z m1070 -235 l0 -200 -305 0 -305 0 0
    200 0 200 305 0 305 0 0 -200z"/>
    <path class="logo-wagashi" d="M7340 4095 l0 -1095 888 2 887 3 3 428 2 427 70 0 70 0 0 230 0 230
    -445 0 -445 0 2 -227 3 -228 138 -3 137 -3 0 -194 0 -195 -425 0 -425 0 0 625
    0 625 715 0 715 0 0 235 0 235 -945 0 -945 0 0 -1095z"/>
    <path class="logo-wagashi" d="M9730 4755 l0 -435 -90 0 -90 0 0 -230 0 -230 81 0 82 0 -6 -57 c-15
    -139 -85 -346 -148 -434 l-21 -29 147 -170 c81 -94 151 -172 155 -175 5 -3 29
    20 55 51 133 164 221 385 267 675 l23 139 307 0 308 0 0 -420 0 -420 230 0
    230 0 0 420 0 420 75 0 75 0 0 230 0 230 -75 0 -75 0 0 435 0 435 -765 0 -765
    0 0 -435z m1070 -235 l0 -200 -305 0 -305 0 0 200 0 200 305 0 305 0 0 -200z"/>
    <path class="logo-wagashi" d="M11690 4530 l0 -660 520 0 520 0 -6 -32 c-24 -139 -71 -254 -126
    -308 -54 -55 -79 -60 -273 -60 l-175 0 0 70 0 70 -230 0 -230 0 0 -306 0 -306
    428 5 c473 4 492 7 627 72 225 110 371 336 432 668 19 102 24 378 10 510 l-9
    77 -514 0 -514 0 0 195 0 195 515 0 515 0 0 235 0 235 -745 0 -745 0 0 -660z"/>
    <path class="logo-wagashi" d="M2900 4085 l0 -1095 390 0 389 0 3 -67 3 -68 230 0 230 0 3 68 3 67
    389 0 390 0 0 1095 0 1095 -230 0 -230 0 0 -860 0 -860 -160 0 -160 0 0 450 0
    450 -235 0 -235 0 0 -450 0 -450 -160 0 -160 0 0 860 0 860 -230 0 -230 0 0
    -1095z"/>
    <path class="logo-wagashi" d="M13560 4750 l0 -430 -85 0 -85 0 0 -230 0 -230 85 0 85 0 0 -420 0
    -420 230 0 230 0 0 420 0 420 350 0 350 0 0 -420 0 -420 230 0 230 0 0 420 0
    420 100 0 100 0 0 230 0 230 -100 0 -100 0 0 430 0 430 -230 0 -230 0 0 -430
    0 -430 -350 0 -350 0 0 430 0 430 -230 0 -230 0 0 -430z"/>
    <path class="logo-wagashi" d="M15610 4100 l0 -1080 230 0 230 0 0 1080 0 1080 -230 0 -230 0 0
    -1080z"/>
    </g>
</svg>
