<?xml version="1.0" standalone="no"?>
<!DOCTYPE svg PUBLIC "-//W3C//DTD SVG 20010904//EN"
 "http://www.w3.org/TR/2001/REC-SVG-20010904/DTD/svg10.dtd">
<svg version="1.0" xmlns="http://www.w3.org/2000/svg"
 width="64.000000pt" height="64.000000pt" viewBox="0 0 64.000000 64.000000"
 preserveAspectRatio="xMidYMid meet">

<g transform="translate(0.000000,64.000000) scale(0.100000,-0.100000)"
fill="#000000" stroke="none">
<path d="M204 609 c-71 -27 -137 -88 -171 -157 -24 -48 -28 -70 -28 -137 0
-66 5 -90 26 -135 30 -62 86 -123 141 -151 55 -28 68 -25 68 16 0 33 -2 35
-35 35 -35 0 -42 5 -90 66 -45 58 -20 62 34 7 24 -25 46 -38 63 -38 15 -1 26
2 25 5 -1 3 4 14 10 25 11 19 7 22 -38 39 -65 22 -89 60 -89 137 0 32 6 63 14
74 8 11 12 33 10 50 -3 16 0 37 5 45 9 13 14 13 43 1 44 -19 212 -19 256 0 29
12 34 12 43 -1 5 -8 8 -29 5 -45 -2 -17 2 -39 10 -50 8 -11 14 -42 14 -73 0
-86 -29 -122 -117 -147 -19 -5 -21 -10 -13 -25 6 -10 10 -46 10 -79 0 -69 7
-73 68 -42 55 28 111 89 141 151 35 74 37 191 4 262 -69 152 -254 227 -409
167z"/>
</g>
</svg>
