<svg version="1.1" id="Layer_1" xmlns="http://www.w3.org/2000/svg" xmlns:xlink="http://www.w3.org/1999/xlink" x="0px" y="0px"
width="100%" viewBox="0 0 64 64" enable-background="new 0 0 64 64" xml:space="preserve">
	<path fill="#0278B6" opacity="1.000000" stroke="none" d="
	M41.000072,65.000000 
	C27.333387,65.000000 14.166720,65.000000 1.000040,65.000000 
	C1.000027,43.666683 1.000027,22.333368 1.000013,1.000040 
	C22.333315,1.000027 43.666630,1.000027 64.999954,1.000013 
	C64.999969,22.333315 64.999969,43.666630 64.999985,64.999969 
	C57.166698,65.000000 49.333393,65.000000 41.000072,65.000000 
	M35.043179,48.334415 
	C35.047619,45.343132 34.949280,42.347198 35.084461,39.361835 
	C35.229156,36.166420 36.108349,33.063156 40.032223,33.213284 
	C43.802677,33.357544 44.104893,36.470154 44.106041,39.450241 
	C44.107738,43.868176 44.106480,48.286114 44.106480,52.748665 
	C47.398113,52.748665 49.829735,52.748665 52.872494,52.748665 
	C52.872494,47.575607 53.028362,42.638302 52.841084,37.714046 
	C52.408390,26.337009 45.356319,22.636944 35.584259,27.158136 
	C32.884506,26.726934 30.184753,26.295734 27.115200,25.805470 
	C27.115200,35.374557 27.115200,44.044529 27.115200,52.668922 
	C34.407677,53.342510 34.407677,53.342510 35.043179,48.334415 
	M22.913956,50.112961 
	C22.915543,43.290691 22.855036,36.467548 22.951124,29.646610 
	C22.986559,27.131468 22.082193,25.626667 19.509348,26.165915 
	C17.699715,26.545198 14.568093,27.535442 14.528955,28.370195 
	C14.150349,36.445347 14.301733,44.545345 14.301733,54.204647 
	C17.957550,52.852001 20.417534,51.941811 22.913956,50.112961 
	M24.006256,18.469421 
	C22.468464,13.324575 18.761694,11.297171 15.568422,14.200654 
	C14.238232,15.410130 13.064323,18.206264 13.576526,19.663155 
	C14.193644,21.418463 16.905428,23.830276 18.303619,23.590044 
	C20.376509,23.233892 22.091785,20.796360 24.006256,18.469421 
	z"/>
	<path fill="#F9FCFD" opacity="1.000000" stroke="none" d="
	M35.042679,48.804539 
	C34.407677,53.342510 34.407677,53.342510 27.115200,52.668922 
	C27.115200,44.044529 27.115200,35.374557 27.115200,25.805470 
	C30.184753,26.295734 32.884506,26.726934 35.584259,27.158136 
	C45.356319,22.636944 52.408390,26.337009 52.841084,37.714046 
	C53.028362,42.638302 52.872494,47.575607 52.872494,52.748665 
	C49.829735,52.748665 47.398113,52.748665 44.106480,52.748665 
	C44.106480,48.286114 44.107738,43.868176 44.106041,39.450241 
	C44.104893,36.470154 43.802677,33.357544 40.032223,33.213284 
	C36.108349,33.063156 35.229156,36.166420 35.084461,39.361835 
	C34.949280,42.347198 35.047619,45.343132 35.042679,48.804539 
	z"/>
	<path fill="#EFF6FA" opacity="1.000000" stroke="none" d="
	M22.895737,50.572289 
	C20.417534,51.941811 17.957550,52.852001 14.301733,54.204647 
	C14.301733,44.545345 14.150349,36.445347 14.528955,28.370195 
	C14.568093,27.535442 17.699715,26.545198 19.509348,26.165915 
	C22.082193,25.626667 22.986559,27.131468 22.951124,29.646610 
	C22.855036,36.467548 22.915543,43.290691 22.895737,50.572289 
	z"/>
	<path fill="#F2F8FB" opacity="1.000000" stroke="none" d="
	M23.982777,18.857140 
	C22.091785,20.796360 20.376509,23.233892 18.303619,23.590044 
	C16.905428,23.830276 14.193644,21.418463 13.576526,19.663155 
	C13.064323,18.206264 14.238232,15.410130 15.568422,14.200654 
	C18.761694,11.297171 22.468464,13.324575 23.982777,18.857140 
	z"/>
</svg>