<?xml version="1.0" standalone="no"?>
<!DOCTYPE svg PUBLIC "-//W3C//DTD SVG 20010904//EN"
 "http://www.w3.org/TR/2001/REC-SVG-20010904/DTD/svg10.dtd">
<svg version="1.0" xmlns="http://www.w3.org/2000/svg"
 width="64.000000pt" height="64.000000pt" viewBox="0 0 64.000000 64.000000"
 preserveAspectRatio="xMidYMid meet">

<g transform="translate(0.000000,64.000000) scale(0.100000,-0.100000)"
fill="#000000" stroke="none">
<path d="M17 622 c-22 -25 -23 -115 -1 -136 19 -19 124 -22 142 -4 18 18 15
123 -4 142 -23 23 -116 22 -137 -2z"/>
<path d="M246 618 c-9 -12 -16 -41 -16 -63 0 -66 20 -85 90 -85 70 0 90 19 90
87 0 61 -25 83 -94 83 -45 0 -58 -4 -70 -22z"/>
<path d="M486 624 c-19 -19 -22 -124 -4 -142 18 -18 123 -15 142 4 23 23 22
116 -2 137 -25 22 -115 23 -136 1z"/>
<path d="M22 394 c-18 -13 -22 -25 -22 -74 0 -70 19 -90 85 -90 66 0 85 20 85
90 0 70 -19 90 -85 90 -22 0 -51 -7 -63 -16z"/>
<path d="M251 391 c-16 -16 -21 -33 -21 -71 0 -68 22 -90 90 -90 67 0 90 22
90 88 0 67 -15 84 -82 90 -47 4 -59 1 -77 -17z"/>
<path d="M492 394 c-18 -13 -22 -25 -22 -74 0 -49 4 -61 22 -74 29 -20 97 -20
126 0 31 21 32 114 2 144 -25 25 -95 27 -128 4z"/>
<path d="M16 154 c-23 -23 -22 -116 2 -137 25 -22 115 -23 136 -1 19 19 22
124 4 142 -18 18 -123 15 -142 -4z"/>
<path d="M246 148 c-9 -12 -16 -41 -16 -63 0 -66 20 -85 90 -85 70 0 90 19 90
85 0 66 -20 85 -90 85 -49 0 -61 -4 -74 -22z"/>
<path d="M482 158 c-18 -18 -15 -123 4 -142 23 -23 116 -22 137 2 22 25 23
115 1 136 -19 19 -124 22 -142 4z"/>
</g>
</svg>
